HIERARCHY
ROOT Hips
{
	OFFSET -0.001795 -0.223333 0.028219
	CHANNELS 6 Xposition Yposition Zposition Zrotation Yrotation Xrotation 
	JOINT LeftUpLeg
	{
		OFFSET 0.069520 -0.091406 -0.006815
		CHANNELS 3 Zrotation Yrotation Xrotation
		JOINT LeftLeg
		{
			OFFSET 0.034277 -0.375199 -0.004496
			CHANNELS 3 Zrotation Yrotation Xrotation
			JOINT LeftFoot
			{
				OFFSET -0.013596 -0.397961 -0.043693
				CHANNELS 3 Zrotation Yrotation Xrotation
				JOINT LeftToe
				{
					OFFSET 0.026358 -0.055791 0.119288
					CHANNELS 3 Zrotation Yrotation Xrotation
					End Site
					{
						OFFSET 0.000000 0.000000 0.000000
					}
				}
			}
		}
	}
	JOINT RightUpLeg
	{
		OFFSET -0.067670 -0.090522 -0.004320
		CHANNELS 3 Zrotation Yrotation Xrotation
		JOINT RightLeg
		{
			OFFSET -0.038290 -0.382569 -0.008850
			CHANNELS 3 Zrotation Yrotation Xrotation
			JOINT RightFoot
			{
				OFFSET 0.015774 -0.398415 -0.042312
				CHANNELS 3 Zrotation Yrotation Xrotation
				JOINT RightToe
				{
					OFFSET -0.025372 -0.048144 0.123348
					CHANNELS 3 Zrotation Yrotation Xrotation
					End Site
					{
						OFFSET 0.000000 0.000000 0.000000
					}
				}
			}
		}
	}
	JOINT Spine
	{
		OFFSET -0.002533 0.108963 -0.026696
		CHANNELS 3 Zrotation Yrotation Xrotation
		JOINT Spine1
		{
			OFFSET 0.005487 0.135180 0.001092
			CHANNELS 3 Zrotation Yrotation Xrotation
			JOINT Spine2
			{
				OFFSET 0.001457 0.052922 0.025425
				CHANNELS 3 Zrotation Yrotation Xrotation
				JOINT Neck
				{
					OFFSET -0.002778 0.213870 -0.042857
					CHANNELS 3 Zrotation Yrotation Xrotation
					JOINT Head
					{
						OFFSET 0.005152 0.064970 0.051349
						CHANNELS 3 Zrotation Yrotation Xrotation
						End Site
						{
							OFFSET 0.000000 0.000000 0.000000
						}
					}
				}
				JOINT LeftShoulder
				{
					OFFSET 0.078845 0.121749 -0.034090
					CHANNELS 3 Zrotation Yrotation Xrotation
					JOINT LeftArm
					{
						OFFSET 0.090977 0.030469 -0.008868
						CHANNELS 3 Zrotation Yrotation Xrotation
						JOINT LeftForeArm
						{
							OFFSET 0.259612 -0.012772 -0.027456
							CHANNELS 3 Zrotation Yrotation Xrotation
							JOINT LeftHand
							{
								OFFSET 0.249234 0.008986 -0.001171
								CHANNELS 3 Zrotation Yrotation Xrotation
								End Site
								{
									OFFSET 0.000000 0.000000 0.000000
								}
							}
						}
					}
				}
				JOINT RightShoulder
				{
					OFFSET -0.081759 0.118833 -0.038615
					CHANNELS 3 Zrotation Yrotation Xrotation
					JOINT RightArm
					{
						OFFSET -0.096012 0.032551 -0.009143
						CHANNELS 3 Zrotation Yrotation Xrotation
						JOINT RightForeArm
						{
							OFFSET -0.253742 -0.013329 -0.021401
							CHANNELS 3 Zrotation Yrotation Xrotation
							JOINT RightHand
							{
								OFFSET -0.255298 0.007772 -0.005559
								CHANNELS 3 Zrotation Yrotation Xrotation
								End Site
								{
									OFFSET 0.000000 0.000000 0.000000
								}
							}
						}
					}
				}
			}
		}
	}
}
MOTION
Frames: 13
Frame Time: 0.050000
0.000000 0.930983 0.000000 -4.416872 16.822345 -2.915445 6.111900 -0.241343 7.917015 -1.386101 0.097681 0.134707 3.011822 6.180053 0.648602 0.000000 0.000000 0.000000 -10.085370 -0.314280 -8.907780 -1.800633 0.436254 5.245590 2.029115 -1.336611 22.418824 0.000000 0.000000 0.000000 0.143814 0.042558 -1.132635 5.299659 -2.371570 -1.719446 -3.248696 -8.013401 5.056579 4.565087 -3.097334 -4.500365 0.000000 0.000000 0.000000 -17.353352 -12.478208 4.334973 -61.085472 -36.406207 12.664273 -156.461276 -62.970172 148.355164 0.000000 0.000000 0.000000 14.313440 0.256460 -0.822187 46.242185 17.516495 1.877742 -99.610874 44.254150 -44.942304 0.000000 0.000000 0.000000 
0.001209 0.931841 -0.002793 -4.567647 16.790903 -2.183661 5.752691 -0.200968 7.379729 -0.730880 0.072316 -0.703437 2.984880 6.296685 0.972442 0.000000 0.000000 0.000000 -10.842234 -0.411386 -9.818365 -0.982223 0.270721 4.509523 3.083358 -0.293629 24.606017 0.000000 0.000000 0.000000 -0.841300 0.029728 -1.156096 6.280315 -2.924691 -1.244145 -2.511280 -7.975669 3.998204 5.474527 -4.640514 0.646698 0.000000 0.000000 0.000000 -21.112433 -12.689594 4.519745 -58.590347 -35.369783 11.537498 -154.460762 -63.801468 145.704894 0.000000 0.000000 0.000000 14.405368 0.356088 -0.849009 46.967200 17.891885 2.191237 -94.725144 45.718539 -43.348020 0.000000 0.000000 0.000000 
0.002388 0.929724 -0.006704 -4.211736 14.332193 -2.879116 5.611179 -0.107422 8.349782 -2.050963 0.168135 -0.422193 4.042457 8.147928 0.570860 0.000000 0.000000 0.000000 -11.435470 -0.410030 -9.917586 -0.230751 0.145609 4.187624 4.016283 0.422508 25.097406 0.000000 0.000000 0.000000 -1.150366 -0.007590 0.151216 6.531423 -2.954244 -1.938691 -2.949423 -5.884921 5.495213 6.302804 -5.258777 -0.001558 0.000000 0.000000 0.000000 -21.189745 -14.133703 5.106163 -56.403389 -35.363740 10.858069 -154.556661 -68.895635 148.496562 0.000000 0.000000 0.000000 16.722082 2.812595 0.500926 45.536663 19.791497 2.576815 -90.009996 43.617197 -37.558026 0.000000 0.000000 0.000000 
0.003126 0.926574 -0.011096 -4.269933 11.177516 -3.779969 4.963360 0.076935 8.962853 -1.836107 0.140835 0.820427 5.644148 10.951065 -0.356931 0.000000 0.000000 0.000000 -11.886943 -0.385731 -11.225649 0.661425 0.020105 4.653329 6.616522 2.406006 28.323101 0.000000 0.000000 0.000000 -0.515655 -0.019830 0.555717 5.359643 -2.684902 0.337323 -1.561058 -5.050443 4.766458 5.235693 -4.636980 1.674936 0.000000 0.000000 0.000000 -22.361125 -14.048118 5.476201 -55.846886 -34.339235 10.184434 -146.241906 -75.641299 142.271703 0.000000 0.000000 0.000000 17.469727 4.466351 1.027935 45.001390 21.217669 3.166633 -78.338196 43.081530 -31.073301 0.000000 0.000000 0.000000 
0.003322 0.924621 -0.014982 -4.254311 8.633915 -5.006175 5.126700 0.156872 9.509988 -2.925735 0.233264 2.623766 6.749514 13.105827 -0.819554 0.000000 0.000000 0.000000 -11.809764 -0.300309 -11.457636 1.444799 -0.101040 4.280109 6.821147 1.871877 29.046874 0.000000 0.000000 0.000000 -0.851366 -0.072427 1.982422 5.250204 -2.679707 0.756731 -1.028981 -4.515097 5.599903 4.937110 -4.278652 0.862691 0.000000 0.000000 0.000000 -22.350912 -14.815563 6.263837 -54.716276 -33.803916 9.484606 -129.692281 -82.452877 128.631385 0.000000 0.000000 0.000000 18.804888 6.127030 1.655276 44.370108 22.347354 3.485151 -69.727997 44.614867 -28.107662 0.000000 0.000000 0.000000 
0.003467 0.923039 -0.017119 -4.441314 3.912217 -4.969242 4.862680 0.338250 9.854011 -3.513832 0.339141 3.018033 8.641711 17.260518 -0.291966 0.000000 0.000000 0.000000 -10.835057 0.014672 -13.519232 1.806941 -0.141689 3.353918 8.044106 2.278058 29.880617 0.000000 0.000000 0.000000 -0.158563 -0.064273 1.627553 4.758330 -2.427013 0.953877 0.278735 -5.158873 6.986819 2.811672 -2.542838 1.037614 0.000000 0.000000 0.000000 -22.845639 -14.562662 7.341942 -52.581876 -33.718294 8.563930 -80.351782 -86.907695 83.660237 0.000000 0.000000 0.000000 20.287319 7.841872 1.646138 45.221786 20.707206 3.087933 -68.330396 50.996912 -33.155385 0.000000 0.000000 0.000000 
0.004398 0.921528 -0.016680 -4.699082 0.462366 -5.317052 4.572819 0.498911 10.446888 -3.637193 0.387211 3.642694 10.081237 20.398863 0.102087 0.000000 0.000000 0.000000 -9.372774 0.339057 -14.758066 1.593784 -0.107709 2.677050 8.520198 2.941074 28.208524 0.000000 0.000000 0.000000 0.288728 -0.109880 2.576722 5.161688 -2.608559 0.880802 1.156892 -8.022703 7.138717 1.577108 -1.533083 1.204512 0.000000 0.000000 0.000000 -23.038981 -13.393278 8.283768 -50.682456 -33.891570 7.826052 26.658609 -87.197405 -17.198363 0.000000 0.000000 0.000000 21.049229 8.414810 0.430750 46.772278 17.207734 2.323136 -68.885692 59.100421 -41.712267 0.000000 0.000000 0.000000 
0.007192 0.919702 -0.013307 -4.611985 -4.317779 -5.435371 3.883807 0.777808 11.514315 -4.448826 0.564577 3.547427 11.966007 24.504480 1.237697 0.000000 0.000000 0.000000 -8.326406 0.684824 -16.142288 2.077155 -0.151062 2.393651 9.584107 4.572715 25.969032 0.000000 0.000000 0.000000 1.150089 -0.125982 2.657265 5.471618 -2.695144 0.349992 1.928855 -11.426749 7.764833 -0.204598 0.053112 3.171572 0.000000 0.000000 0.000000 -22.904662 -11.781809 9.268447 -48.687349 -34.615632 7.225291 64.377997 -84.891069 -49.134731 0.000000 0.000000 0.000000 23.129608 7.107664 -2.612624 44.400823 11.676336 0.898085 -71.253526 69.450278 -54.619978 0.000000 0.000000 0.000000 
0.011897 0.918154 -0.007382 -4.283076 -7.945166 -5.742926 2.670090 1.127260 12.913453 -4.759273 0.656812 2.968880 13.421755 27.562964 2.431726 0.000000 0.000000 0.000000 -7.399054 0.960443 -16.979478 1.634043 -0.075948 2.553884 10.861066 6.426532 24.821313 0.000000 0.000000 0.000000 2.109210 -0.125334 2.466282 5.982792 -2.877883 -0.382222 2.382336 -15.923066 7.492986 -2.669220 2.647374 4.810863 0.000000 0.000000 0.000000 -23.048370 -10.301389 10.514078 -48.119123 -36.034371 7.278696 89.612511 -83.253176 -68.932397 0.000000 0.000000 0.000000 22.262753 5.443516 -5.419621 40.789402 5.297532 -0.565412 -73.918437 74.848833 -64.279419 0.000000 0.000000 0.000000 
0.017705 0.916224 0.000782 -3.565261 -12.085306 -5.992344 0.320905 1.668083 14.368078 -4.288710 0.622121 2.019938 15.272364 31.168411 4.279072 0.000000 0.000000 0.000000 -6.783120 1.282167 -18.504349 1.238793 0.028642 3.653708 12.183335 7.699013 24.815177 0.000000 0.000000 0.000000 3.109473 -0.098281 1.983467 6.738167 -3.158190 -1.196435 1.624418 -19.820379 8.296893 -4.236102 4.748736 6.315835 0.000000 0.000000 0.000000 -21.697970 -9.518932 11.532136 -48.475953 -37.840723 8.080795 108.285984 -79.119363 -80.049515 0.000000 0.000000 0.000000 20.531189 3.232223 -7.704222 34.918825 0.810770 -1.243837 -80.883190 75.807316 -73.292524 0.000000 0.000000 0.000000 
0.022502 0.914386 0.010531 -2.756879 -15.011138 -6.396073 -1.480742 2.133635 15.478704 -4.460937 0.681720 1.642576 16.611148 33.553517 5.897102 0.000000 0.000000 0.000000 -6.082287 1.537627 -19.316787 0.374799 0.210245 5.024283 12.966435 9.300586 23.496328 0.000000 0.000000 0.000000 4.198752 -0.107544 2.214579 7.429313 -3.373663 -2.620213 1.019214 -23.457983 8.345429 -4.573268 6.194757 8.605574 0.000000 0.000000 0.000000 -21.019319 -9.933933 13.149161 -47.859495 -41.599942 9.679844 106.888947 -72.546052 -69.494846 0.000000 0.000000 0.000000 16.420677 0.361809 -8.385770 31.347156 -0.961604 -1.557393 -73.626371 72.920484 -65.599740 0.000000 0.000000 0.000000 
0.024164 0.912430 0.021978 -1.885498 -17.321043 -6.806451 -2.633100 2.525202 16.436779 -5.345511 0.865002 1.541320 17.619286 35.164031 7.414169 0.000000 0.000000 0.000000 -5.690235 1.794548 -20.550026 0.418023 0.351047 7.228666 15.095247 14.601960 21.187222 0.000000 0.000000 0.000000 5.475331 -0.110718 2.481477 7.570274 -3.394606 -3.273586 0.153857 -25.874940 8.566337 -4.599243 6.244794 7.699091 0.000000 0.000000 0.000000 -18.475707 -10.732699 13.486430 -47.860900 -45.814072 12.568416 103.350734 -64.825246 -56.752616 0.000000 0.000000 0.000000 13.547636 -2.953378 -8.891491 27.140942 -1.300590 -1.474628 -68.479998 68.684345 -58.200052 0.000000 0.000000 0.000000 
0.021650 0.909884 0.035546 -1.682502 -18.416098 -6.764619 -2.889399 2.794048 17.433949 -5.741681 0.940074 1.206724 18.043065 35.907662 7.977731 0.000000 0.000000 0.000000 -4.665815 2.009414 -20.942026 -0.212349 0.516966 8.189482 18.848781 22.270350 20.668490 0.000000 0.000000 0.000000 6.956726 -0.054050 2.142022 7.279718 -3.247584 -3.761320 -0.389981 -28.533793 8.121009 -4.295700 6.771992 8.918086 0.000000 0.000000 0.000000 -16.921553 -11.449878 13.968126 -45.589977 -48.853243 13.768567 98.820817 -56.851594 -44.178112 0.000000 0.000000 0.000000 9.220771 -5.463777 -7.759341 26.170265 0.739328 -1.375616 -60.893337 63.085392 -49.068223 0.000000 0.000000 0.000000 
